<svg xmlns="http://www.w3.org/2000/svg"
shape-rendering="geometricPrecision"
width="4000" height="4000" viewBox="0 0 651 651">
  <metadata>null</metadata>

<path d="
M 107.258 264.959
C 105.972 265.178 104.663 265.593 103.658 266.434
C 104.14 265.036 102.689 262.421 102.228 261.01
C 102.488 259.952 104.29 259.544 105.165 258.788
C 106.67 257.488 107.696 255.562 107.923 253.588
C 108.143 251.683 107.971 249.708 107.27 247.917
C 106.687 246.426 105.742 245.091 104.5 244.076
C 103.336 243.125 102.081 242.453 100.61 242.113
C 89.296 239.5 83.485 257.004 94.476 261.027
C 93.619 264.733 93.418 268.615 92.382 272.275
C 91.082 273.392 87.744 273.103 86.062 273.477
C 82.066 274.364 78.216 275.735 74.433 277.281
C 64.446 281.361 55.936 288.988 49.47 297.496
C 29.893 323.256 35.627 361.219 60.638 381.204
C 67.163 386.418 75.082 390.514 83.209 392.542
C 86.3 393.313 89.496 393.358 92.604 393.966
C 93.008 394.35 92.794 395.698 92.828 396.247
C 92.965 398.395 93.117 400.702 93.829 402.728
C 82.567 401.469 71.873 398.682 62.186 392.504
C 52.863 386.559 44.585 378.485 38.889 368.971
C 25.998 347.441 26.147 319.489 38.898 297.922
C 46.619 284.861 59.254 274.518 73.258 268.925
C 76.237 267.735 79.367 266.633 82.502 265.931
C 84.507 265.482 86.789 265.214 88.696 264.472
C 86.505 262.43 84.345 260.499 83.422 257.534
C 82.662 255.097 82.5 252.489 82.769 249.954
C 82.957 248.173 83.592 246.459 84.372 244.859
C 90.352 232.6 108.609 234.08 113.081 246.807
C 113.991 249.396 114.094 252.273 113.669 254.971
C 113.284 257.416 111.943 260.126 110.267 261.946
C 109.315 262.979 108.007 263.764 107.258 264.959 Z"
opacity="1" fill="rgb(53,178,231)" fill-rule="evenodd" />
<path d="
M 43.964 327.109
C 45.062 317.914 48.491 306.916 55.239 300.189
C 56.08 300.083 58.015 301.602 57.884 302.54
C 57.602 303.447 56.704 304.112 56.162 304.879
C 55.037 306.471 53.982 308.161 53.047 309.872
C 50.174 315.127 48.084 321.748 48.31 327.737
C 47.065 327.584 45.438 327.773 44.188 327.911
C 43.953 327.372 44.02 327.641 43.964 327.109 Z"
opacity="1" fill="rgb(47,174,218)" fill-rule="evenodd" />
<path d="
M 43.783 332.89
C 44.544 331.977 47.491 332.198 48.446 332.918
C 48.55 333.431 48.636 333.813 48.427 334.305
C 46.882 334.309 45.365 334.562 43.852 334.11
C 43.757 333.376 43.789 333.782 43.783 332.89 Z"
opacity="1" fill="rgb(26,136,167)" fill-rule="evenodd" />
<path d="
M 44.427 339.402
C 45.142 339.364 47.369 338.905 47.82 339.504
C 47.862 346.726 51.125 353.963 54.86 359.994
C 56.119 362.027 58.489 363.895 59.477 365.968
C 59.206 366.426 57.153 368.707 56.789 368.644
C 49.427 360.569 45.786 350.538 44.037 339.934
C 44.167 339.757 44.297 339.58 44.427 339.402 Z"
opacity="1" fill="rgb(36,163,209)" fill-rule="evenodd" />
<path d="
M 51.031 327.632
C 51.058 327.01 51.041 327.365 51.086 326.565
C 51.805 326.27 52.476 326.246 53.119 326.704
C 54.276 329.147 54.768 331.894 55.47 334.491
C 55.663 335.208 55.749 337.035 56.485 337.341
C 57.12 336.951 56.967 335.344 57.161 334.67
C 57.941 331.954 58.017 326.485 61.63 326.591
C 63.766 329.367 63.508 333.591 65.067 336.694
C 65.893 336.573 65.755 334.614 65.89 333.962
C 66.39 331.554 66.798 328.546 68.517 326.676
C 69.22 326.71 69.827 326.776 70.493 326.999
C 70.546 328.539 69.563 330.163 69.059 331.594
C 68.405 333.449 67.97 335.374 67.456 337.27
C 67.164 338.344 67.011 340.104 66.209 340.913
C 65.599 341.232 64.882 341.148 64.245 340.94
C 62.724 339.811 62.083 336.003 61.777 334.191
C 61.573 332.988 61.562 331.421 60.276 331.198
C 59.565 333.709 58.921 336.303 58.322 338.848
C 58.124 339.665 57.992 340.5 57.285 341.006
C 56.657 341.252 56.059 341.286 55.417 341.08
C 54.129 339.648 54.056 337.968 53.556 336.197
C 52.775 333.439 51.336 330.467 51.031 327.632 Z"
opacity="1" fill="rgb(5,5,21)" fill-rule="evenodd" />
<path d="
M 56.469 298.609
C 56.433 297.572 56.232 297.795 57.327 298.335
C 58.032 298.806 59.8 299.724 59.885 300.646
C 59.817 301.1 59.561 301.16 59.124 301.143
C 57.979 300.668 56.724 299.886 56.469 298.609 Z"
opacity="0.996" fill="rgb(43,149,202)" fill-rule="evenodd" />
<path d="
M 60.537 373.072
C 61.736 371.499 62.942 370.202 64.71 369.316
C 64.947 369.68 64.073 370.674 63.873 370.943
C 63.031 372.074 61.799 374.116 60.173 373.642
C 60.295 373.452 60.416 373.262 60.537 373.072 Z"
opacity="1" fill="rgb(70,154,186)" fill-rule="evenodd" />
<path d="
M 60.682 293.132
C 62.715 293.736 63.478 295.488 64.818 296.949
C 64.574 297.424 63.466 296.864 63.175 296.681
C 61.925 295.895 61.05 294.534 60.682 293.132 Z"
opacity="0.996" fill="rgb(88,183,205)" fill-rule="evenodd" />
<path d="
M 64.71 376.468
C 65.671 375.632 66.515 374.649 67.236 373.602
C 67.758 373.622 68.626 374.709 69.093 375.034
C 70.758 376.195 72.351 377.475 74.155 378.425
C 79.261 381.114 84.18 382.593 89.817 383.558
C 89.899 384.876 89.866 386.139 89.873 387.452
C 83.268 387.511 75.716 383.83 70.26 380.417
C 68.44 379.278 66.102 378.115 64.71 376.468 Z"
opacity="1" fill="rgb(46,167,213)" fill-rule="evenodd" />
<path d="
M 65.209 289.951
C 70.269 285.566 76.923 282.3 83.341 280.494
C 84.86 280.067 86.389 279.499 87.942 279.218
C 88.237 279.164 89.606 278.831 89.706 279.01
C 89.667 280.253 89.909 281.519 89.77 282.756
C 83.916 283.432 77.442 286.322 72.502 289.428
C 70.941 290.409 69.681 292.487 68.119 293.248
C 67.04 292.431 65.827 291.154 65.209 289.951 Z"
opacity="1" fill="rgb(71,181,224)" fill-rule="evenodd" />
<path d="
M 99.559 258.95
C 99.395 260.623 99.383 262.276 99.261 263.957
C 97.638 284.31 99.229 304.933 98.929 325.345
C 95.259 326.118 91.582 328.388 91.084 332.371
C 90.849 333.485 90.384 333.772 89.33 333.126
C 87.448 329.122 84.71 325.963 81.956 322.486
C 78.341 317.922 74.751 313.342 71.144 308.773
C 69.568 306.777 66.863 304.927 65.804 302.629
C 67.636 303.507 69.03 305.126 70.723 306.231
C 76.769 310.177 82.438 314.723 88.566 318.526
C 89.268 317.639 88.815 314.996 88.981 313.825
C 89.626 309.258 90.254 304.689 90.886 300.12
C 92.708 286.948 94.685 273.838 96.886 260.734
C 97.417 257.572 97.691 254.372 98.409 251.242
C 98.748 250.828 98.804 253.119 98.863 253.518
C 99.134 255.352 99.468 257.082 99.559 258.95 Z"
opacity="1" fill="rgb(64,185,233)" fill-rule="evenodd" />
<path d="
M 91.394 335.039
C 92.818 339.011 95.288 339.731 99.027 340.839
C 98.199 352.141 99.129 363.686 99.112 375.012
C 99.097 384.902 98.017 395.112 99.175 404.959
C 99.021 407.05 98.999 409.169 98.847 411.273
C 98.803 411.875 98.918 413.205 98.574 413.693
C 97.091 409.562 97.4 404.465 96.566 400.1
C 94.124 387.325 92.46 374.314 90.535 361.431
C 89.894 357.14 89.697 352.4 88.662 348.223
C 83.534 352.689 77.48 356.268 71.996 360.291
C 70.784 361.181 69.54 362.057 68.313 362.921
C 68.089 363.079 67.127 363.868 66.841 363.309
C 66.618 362.873 67.642 362.056 67.895 361.789
C 69.385 360.214 70.825 358.631 72.193 356.947
C 75.531 352.836 78.806 348.681 82.233 344.646
C 84.577 341.887 87.398 339.224 89.008 335.94
C 89.473 334.813 90.702 332.985 91.394 335.039 Z"
opacity="1" fill="rgb(26,24,58)" fill-rule="evenodd" />
<path d="
M 99.261 263.957
C 99.334 263.901 99.67 263.565 99.792 263.674
C 100.322 264.145 99.913 264.935 100.025 265.516
C 100.187 266.355 101.36 267.219 101.775 268.019
C 102.126 272.257 103.051 276.34 103.647 280.544
C 104.766 288.443 105.75 296.346 106.848 304.245
C 107.504 308.964 108.664 313.891 108.817 318.648
C 109.083 319.044 109.872 318.316 110.259 318.102
C 111.516 317.406 112.704 316.595 113.878 315.77
C 117.856 312.975 121.966 310.258 126.088 307.681
C 126.97 307.13 129.284 305.04 130.312 305.457
C 130.956 305.718 129.364 306.953 129.227 307.082
C 127.6 308.612 126.145 310.342 124.689 312.032
C 120.998 316.318 117.262 320.576 113.669 324.946
C 111.882 327.121 108.017 330.546 107.82 333.474
C 107.72 334.975 108.643 336.013 109.424 337.187
C 109.621 337.483 110.601 339.347 110.159 338.677
C 109.917 340.904 110.154 343.15 110.075 345.388
C 110.032 346.599 109.57 347.91 109.786 349.083
C 109.467 349.123 109.191 348.414 108.943 348.618
C 108.709 348.811 108.727 351.595 108.688 352.1
C 108.424 355.484 107.775 358.921 107.182 362.263
C 105.451 372.024 103.865 381.815 102.159 391.577
C 101.415 395.832 101.197 401.082 99.175 404.959
C 98.017 395.112 99.097 384.902 99.112 375.012
C 99.129 363.686 98.199 352.141 99.027 340.839
C 101.74 340.592 105.416 338.044 106.028 335.292
C 106.917 331.304 103.51 325.238 98.929 325.345
C 99.229 304.933 97.638 284.31 99.261 263.957 Z"
opacity="1" fill="rgb(251,219,8)" fill-rule="evenodd" />
<path d="
M 99.559 258.95
C 100.19 260.263 101.472 259.636 102.228 261.01
C 102.689 262.421 104.14 265.036 103.658 266.434
C 103.592 266.441 103.526 266.448 103.461 266.455
C 102.67 267.068 102.058 266.969 101.775 268.019
C 101.36 267.219 100.187 266.355 100.025 265.516
C 99.913 264.935 100.322 264.145 99.792 263.674
C 99.67 263.565 99.334 263.901 99.261 263.957
C 99.383 262.276 99.395 260.623 99.559 258.95 Z"
opacity="1" fill="rgb(255,251,111)" fill-rule="evenodd" />
<path d="
M 102.992 401.1
C 103.553 398.866 103.614 396.5 104.343 394.308
C 107.583 393.407 111.053 393.576 114.335 392.643
C 122.903 390.205 130.796 385.766 137.686 380.165
C 159.267 362.62 166.753 326.228 150.716 302.825
C 150.961 302.241 152.074 302.044 152.675 301.787
C 154.603 300.96 156.91 299.973 159.007 299.734
C 163.218 308.049 166.538 316.781 167.609 326.108
C 170.392 350.35 158.716 375.59 139.099 389.812
C 132.307 394.737 124.401 398.664 116.276 400.769
C 111.915 401.898 107.499 402.225 103.084 402.894
C 102.646 402.416 102.929 401.713 102.992 401.1 Z"
opacity="1" fill="rgb(51,176,229)" fill-rule="evenodd" />
<path d="
M 103.658 266.434
C 104.663 265.593 105.972 265.178 107.258 264.959
C 108.783 265.798 111.204 265.639 112.94 266.002
C 116.328 266.712 119.633 267.727 122.855 268.989
C 134.047 273.373 142.989 280.833 151.08 289.524
C 148.602 290.702 145.829 291.91 143.091 292.322
C 141.241 291.875 139.133 289.012 137.716 287.736
C 134.478 284.82 130.653 282.306 126.866 280.165
C 122.571 277.735 117.859 275.872 113.059 274.739
C 110.498 274.134 106.531 274.095 104.394 272.524
C 103.837 270.739 103.62 268.882 103.629 267.014
C 103.639 266.821 103.649 266.627 103.658 266.434 Z"
opacity="1" fill="rgb(254,220,6)" fill-rule="evenodd" />
<path d="
M 107.527 281.12
C 107.597 280.577 107.528 280.306 107.832 279.823
C 114.33 279.919 121.192 284.103 126.661 287.223
C 128.15 288.072 131.233 289.393 131.922 291.023
C 131.741 291.683 130.553 294.318 129.64 293.881
C 128.267 293.223 127.012 291.827 125.743 290.956
C 123.007 289.079 119.966 287.368 116.884 286.131
C 114.892 285.332 112.859 284.651 110.751 284.232
C 109.948 284.072 108.611 284.158 107.937 283.688
C 107.676 282.846 107.589 281.996 107.527 281.12 Z"
opacity="1" fill="rgb(248,219,22)" fill-rule="evenodd" />
<path d="
M 107.508 386.129
C 107.699 385.227 107.695 383.935 108.422 383.332
C 114.211 383.123 120.35 380.146 125.118 377.003
C 126.712 375.952 128.261 373.963 129.964 373.236
C 130.73 374.074 132.285 374.979 132.514 376.131
C 131.095 377.676 129.155 378.79 127.417 379.932
C 121.293 383.954 114.552 386.665 107.283 387.578
C 107.362 387.096 107.437 386.613 107.508 386.129 Z"
opacity="1" fill="rgb(43,175,225)" fill-rule="evenodd" />
<path d="
M 110.159 338.677
C 114.442 345.393 120.26 351.339 125.355 357.446
C 126.937 359.342 130.074 361.681 130.963 363.969
C 129.332 363.247 127.831 361.889 126.366 360.872
C 122.903 358.466 119.391 356.13 115.913 353.743
C 113.926 352.38 111.174 351.099 109.786 349.083
C 109.57 347.91 110.032 346.599 110.075 345.388
C 110.154 343.15 109.917 340.904 110.159 338.677 Z"
opacity="0.996" fill="rgb(63,179,229)" fill-rule="evenodd" />
<path d="
M 131.735 326.343
C 135.256 326.28 139.32 325.903 142.789 326.559
C 142.809 327.338 142.912 328.109 142.818 328.886
C 140.303 329.553 136.98 328.735 134.35 328.9
C 133.937 330.029 134.322 331.431 134.219 332.63
C 136.026 332.776 137.947 332.591 139.765 332.57
C 140.244 332.565 141.697 332.346 142.078 332.722
C 142.473 333.111 142.457 334.231 142.338 334.726
C 139.673 334.682 136.983 334.902 134.318 334.812
C 133.927 335.994 134.213 337.4 134.209 338.638
C 136.337 338.808 138.554 338.512 140.695 338.527
C 141.501 338.533 142.846 338.384 143.465 338.899
C 143.483 339.557 143.526 340.23 143.381 340.874
C 139.683 340.619 135.614 340.592 131.925 340.967
C 131.441 336.332 131.466 330.997 131.735 326.343 Z"
opacity="1" fill="rgb(4,6,30)" fill-rule="evenodd" />
<path d="
M 133.063 296.097
C 133.865 294.996 134.714 293.797 136.036 293.35
C 136.481 294.032 133.594 297.51 132.671 297.04
C 132.866 296.327 132.721 296.635 133.063 296.097 Z"
opacity="1" fill="rgb(227,221,176)" fill-rule="evenodd" />
<path d="
M 133.247 369.369
C 134.649 369.717 135.748 370.861 136.524 372.053
C 136.726 372.363 137.145 372.881 136.905 373.226
C 135.266 372.798 133.924 371.069 133.086 369.704
C 133.139 369.593 133.193 369.481 133.247 369.369 Z"
opacity="0.992" fill="rgb(42,139,163)" fill-rule="evenodd" />
<path d="
M 137.333 300.574
C 143.953 297.471 150.612 294.32 157.522 291.875
C 159.906 291.031 163.206 289.441 165.745 290.24
C 166.883 292.064 163.273 293.49 162.018 294.093
C 157.396 296.311 152.127 296.888 147.272 298.382
C 144.802 299.142 142.207 300.236 139.694 300.779
C 139.211 300.883 137.238 301.297 137.333 300.574 Z"
opacity="1" fill="rgb(243,210,43)" fill-rule="evenodd" />
<path d="
M 137.691 365.485
C 143.748 358.274 148.22 349.244 148.701 339.722
C 150.117 339.646 151.426 339.567 152.837 339.803
C 153.108 341.938 151.959 344.976 151.453 347.048
C 149.492 355.092 145.291 361.68 140.683 368.427
C 139.606 367.615 138.59 366.745 137.547 365.889
C 137.595 365.754 137.643 365.619 137.691 365.485 Z"
opacity="1" fill="rgb(49,171,215)" fill-rule="evenodd" />
<path d="
M 142.004 305.381
C 142.93 305.014 143.754 304.852 144.749 304.846
C 146.659 306.024 147.497 308.772 148.362 310.726
C 150.731 316.078 153.275 322.191 152.899 328.182
C 151.805 328.288 150.731 328.152 149.659 327.936
C 148.242 323.809 148.009 319.377 146.404 315.257
C 145.118 311.955 142.616 309.174 141.456 305.92
C 141.638 305.74 141.821 305.561 142.004 305.381 Z"
opacity="1" fill="rgb(245,212,20)" fill-rule="evenodd" />
<path d="
M 148.034 333.626
C 148.051 333.296 148.068 332.966 148.085 332.636
C 149.647 332.371 151.024 332.466 152.583 332.731
C 152.987 333.282 152.798 333.933 152.581 334.556
C 151.317 335.089 149.775 334.893 148.45 334.773
C 148.05 334.358 148.044 334.189 148.034 333.626 Z"
opacity="0.996" fill="rgb(16,166,196)" fill-rule="evenodd" />
<path d="
M 160.732 280.987
C 161.733 280.426 162.523 279.651 163.626 279.263
C 165.839 279.715 168.426 281.992 170.343 283.193
C 171.094 283.664 172.054 284.475 172.978 284.502
C 174.935 284.559 177.329 282.78 179.049 281.976
C 183.199 280.033 187.417 278.116 191.694 276.48
C 185.478 270.166 179.225 263.79 173.296 257.199
C 174.622 256.576 176.467 255.248 177.998 255.389
C 181.348 255.697 184.048 259.533 187.062 260.735
C 188.648 260.189 189.889 258.595 191.729 259.076
C 192.347 259.772 192.741 260.191 192.55 261.159
C 192.223 261.679 191.719 262.128 191.244 262.521
C 191.55 263.129 191.893 263.168 192.419 263.546
C 193.259 264.15 194.388 265.157 195.494 265.125
C 197.063 265.081 198.442 263.449 200.05 263.209
C 200.858 263.825 201.936 265.315 201.776 266.373
C 201.218 266.867 200.534 266.832 199.979 267.418
C 201.448 268.483 204.14 270.955 205.974 271.014
C 207.426 271.06 209.485 269.634 210.878 269.14
C 215.053 267.66 219.497 265.685 223.963 265.357
C 226.56 265.166 232.544 266.269 229.99 270.025
C 229.648 270.528 229.299 271.017 228.86 271.444
C 226.357 273.879 222.758 275.039 219.644 276.442
C 216.46 277.877 212.041 278.758 209.358 281.012
C 208.332 283.157 207.598 285.509 206.71 287.722
C 207.677 288.001 209.099 286.847 209.868 287.626
C 210.174 288.559 210.372 289.489 210.502 290.462
C 209.176 291.29 207.417 291.326 206.151 292.286
C 204.882 293.248 204.729 295.104 204.381 296.549
C 204.236 297.152 203.698 298.301 203.872 298.872
C 204.813 298.743 205.742 298.462 206.679 298.276
C 206.951 298.876 207.469 300.473 207.181 301.116
C 205.76 301.669 203.868 301.902 202.776 303.004
C 201.204 305.812 201.039 309.272 199.753 312.209
C 199.105 313.005 195.779 314.694 194.779 314.553
C 195.1 307.672 195.286 300.796 195.265 293.906
C 195.259 292.105 195.258 290.305 195.251 288.505
C 195.249 287.919 195.447 286.837 195.163 286.339
C 191.14 287.795 186.555 288.955 182.355 289.831
C 180.567 290.205 177.435 290.186 176.135 291.501
C 174.708 293.722 174.092 296.667 173.121 299.12
C 172.753 300.053 172.525 301.476 171.697 302.103
C 170.917 302.252 169.102 302.607 168.427 302.104
C 168.381 299.239 168.303 296.373 168.269 293.507
C 168.255 292.371 168.553 290.757 168.155 289.689
C 166.845 286.181 162.104 284.341 160.732 280.987 Z"
opacity="1" fill="rgb(20,27,65)" fill-rule="evenodd" />
<path d="
M 202.388 357.432
C 203.472 356.237 204.737 355.211 205.867 354.058
C 206.471 353.441 207.142 352.467 207.944 352.168
C 209.346 353.864 211.021 355.58 213.056 356.493
C 217.371 358.428 223.869 356.94 225.238 351.835
C 226.363 347.637 225.776 342.813 225.787 338.506
C 225.805 330.947 225.996 323.35 225.684 315.797
C 226.093 315.166 226.795 315.365 227.507 315.38
C 229.411 315.421 232.628 314.779 234.362 315.462
C 234.136 324.473 234.432 333.494 234.424 342.509
C 234.419 348.079 234.778 353.744 231.775 358.697
C 227.27 366.125 216.127 367.081 208.854 363.82
C 206.314 362.681 203.078 360.523 202.008 357.834
C 202.135 357.7 202.262 357.566 202.388 357.432 Z"
opacity="1" fill="rgb(17,25,63)" fill-rule="evenodd" />
<path d="
M 254.937 338.111
C 255.303 334.332 256.516 330.619 258.374 327.322
C 269.226 308.057 300.255 311.233 306.411 332.675
C 307.275 335.684 307.669 338.813 307.405 341.941
C 306.933 347.527 304.589 353.298 300.7 357.391
C 290.163 368.477 270.427 368.288 260.568 356.392
C 258.447 353.834 256.953 350.899 255.992 347.734
C 255.05 344.633 254.624 341.343 254.937 338.111 Z
M 264.461 336.091
C 263.903 338.674 263.95 341.609 264.501 344.19
C 264.972 346.399 265.872 348.645 267.211 350.476
C 275.671 362.045 294.584 358.481 297.711 344.29
C 298.302 341.611 298.282 338.868 297.732 336.183
C 297.263 333.891 296.362 331.759 295.063 329.812
C 286.811 317.445 267.522 321.92 264.461 336.091 Z"
opacity="1" fill="rgb(21,28,63)" fill-rule="evenodd" />
<path d="
M 327.389 316.068
C 327.455 315.848 327.521 315.629 327.587 315.41
C 330.445 315.384 333.308 315.302 336.167 315.318
C 336.959 317.306 336.292 320.85 336.296 323.002
C 336.307 328.794 336.297 334.586 336.309 340.378
C 336.318 344.294 336.232 348.52 338.421 351.946
C 343.132 359.315 355.749 359.242 359.948 351.291
C 362.018 347.371 361.615 342.532 361.629 338.235
C 361.653 330.812 362.313 323.034 361.53 315.655
C 362.446 315.163 363.766 315.385 364.796 315.4
C 366.714 315.429 368.645 315.419 370.56 315.295
C 370.837 316.416 370.467 317.745 370.438 318.897
C 370.376 321.431 370.445 323.974 370.448 326.508
C 370.452 331.282 370.497 336.067 370.458 340.831
C 370.413 346.295 370.074 351.942 366.91 356.634
C 359.191 368.079 338.725 368.854 330.913 356.968
C 327.127 351.207 327.31 344.577 327.318 337.962
C 327.326 330.667 327.24 323.361 327.389 316.068 Z"
opacity="1" fill="rgb(22,30,63)" fill-rule="evenodd" />
<path d="
M 393.303 315.381
C 399.495 315.493 405.718 315.39 411.916 315.382
C 416.838 315.377 421.754 315.254 426.226 317.646
C 434.951 322.314 437.25 334.635 431.193 342.354
C 429.026 345.115 426.279 345.995 423.212 347.344
C 426.377 351.651 429.333 356.119 432.405 360.494
C 433.133 361.53 433.861 362.563 434.588 363.599
C 434.723 363.791 435.502 364.54 435.421 364.748
C 432.025 364.696 428.623 364.644 425.224 364.625
C 423.755 363.408 422.72 361.216 421.63 359.647
C 419.118 356.028 416.708 352.283 414.101 348.738
C 410.433 347.895 406.126 348.859 402.376 348.747
C 402.627 351.786 402.378 354.946 402.354 358
C 402.337 360.147 402.56 362.461 402.298 364.588
C 399.59 364.891 396.059 364.911 393.354 364.619
C 393.72 348.226 392.729 331.765 393.303 315.381 Z
M 402.329 323.373
C 401.938 325.183 402.215 327.231 402.224 329.078
C 402.242 332.927 402.398 336.798 402.313 340.643
C 403.979 341.065 406.27 340.682 408.002 340.67
C 412.418 340.641 418.241 341.502 422.171 339.05
C 426.687 336.231 426.714 328.511 422.443 325.436
C 419.479 323.302 415.998 323.437 412.506 323.404
C 409.118 323.371 405.713 323.224 402.329 323.373 Z"
opacity="1" fill="rgb(21,29,64)" fill-rule="evenodd" />
<path d="
M 455.5 316.6
C 455.521 316.43 455.542 316.26 455.563 316.09
C 456.995 314.959 459.234 315.496 461.003 315.405
C 461.78 315.365 462.711 315.112 463.399 315.519
C 466.102 320.276 470.424 324.386 473.744 328.732
C 477.315 333.405 481.108 337.9 484.72 342.539
C 486.462 344.776 488.025 347.444 489.963 349.487
C 490.264 348.606 489.896 347.543 489.911 346.632
C 489.949 344.202 489.932 341.77 489.953 339.339
C 490.02 331.514 490.435 323.598 490.052 315.777
C 490.518 315.143 491.598 315.351 492.365 315.368
C 494.417 315.414 496.967 314.913 498.946 315.364
C 498.31 327.353 498.963 339.5 498.905 351.509
C 498.889 354.674 498.887 357.839 498.858 361.004
C 498.85 361.928 499.229 363.723 498.743 364.495
C 496.374 364.601 493.536 364.919 491.196 364.638
C 481.803 353.597 473.584 341.474 464.366 330.306
C 464.815 338.474 464.33 346.809 464.333 354.998
C 464.335 358.032 463.756 361.665 464.322 364.634
C 461.6 364.793 458.342 364.879 455.656 364.423
C 454.987 356.349 455.429 348.096 455.435 339.999
C 455.442 332.247 454.972 324.333 455.5 316.6 Z"
opacity="1" fill="rgb(20,28,63)" fill-rule="evenodd" />
<path d="
M 522.437 316.61
C 522.518 315.969 522.496 316.356 522.42 315.446
C 524.04 315.054 525.844 315.3 527.504 315.285
C 530.671 315.255 533.839 315.3 537.006 315.3
C 542.173 315.3 547.339 315.259 552.505 315.263
C 554.867 315.265 557.622 314.862 559.933 315.318
C 559.772 317.929 559.796 320.646 559.864 323.261
C 550.344 322.981 540.77 323.236 531.247 323.239
C 531.355 327.37 531.503 331.625 531.229 335.747
C 533.866 336.102 536.831 335.717 539.505 335.724
C 545.284 335.74 551.07 335.75 556.848 335.645
C 556.542 338.317 556.936 341.058 556.804 343.742
C 551.041 343.608 545.264 343.711 539.498 343.71
C 537.044 343.709 533.756 343.171 531.419 343.904
C 531.339 348.147 531.515 352.437 531.294 356.675
C 534.448 357.281 538.282 356.708 541.506 356.712
C 547.851 356.72 554.306 357.068 560.638 356.689
C 560.546 359.185 560.197 362.192 560.647 364.65
C 547.997 365.348 535.208 363.892 522.556 364.752
C 522.082 364.08 522.417 362.34 522.406 361.501
C 522.365 358.335 522.409 355.167 522.416 352.001
C 522.442 340.233 521.949 328.366 522.437 316.61 Z"
opacity="1" fill="rgb(19,28,63)" fill-rule="evenodd" />
<path d="
M 574.66 315.323
C 577.676 315.221 581.627 314.607 584.558 315.285
C 587.046 320.054 590.088 324.564 592.777 329.226
C 594.507 332.225 595.993 335.743 598.028 338.511
C 603.021 331.053 607.274 322.986 611.97 315.326
C 612.917 314.994 614.307 315.271 615.307 315.297
C 617.414 315.352 619.964 314.741 621.988 315.29
C 620.9 317.959 618.702 320.509 617.127 322.934
C 613.851 327.974 610.898 333.236 607.661 338.306
C 606.052 340.826 603.407 343.802 602.569 346.683
C 601.697 349.678 602.436 353.958 602.464 357.075
C 602.485 359.253 601.947 362.596 602.655 364.633
C 600.016 364.126 596.506 364.243 593.841 364.531
C 593.362 363.169 593.588 361.435 593.579 359.998
C 593.557 356.629 593.729 353.218 593.5 349.857
C 593.416 348.628 593.799 347.521 593.199 346.353
C 589.502 339.158 584.813 332.172 580.509 325.317
C 579.213 323.252 577.985 321.142 576.728 319.052
C 576.009 317.857 574.99 316.674 574.66 315.323 Z"
opacity="1" fill="rgb(21,28,62)" fill-rule="evenodd" />

</svg>